# xmcd CD database file
#
# Track frame offsets:
#	150
#	29080
#	62309
#	90968
#	114686
#	167865
#	202118
#	236699
#	283698
#
# Disc length: 3921 seconds
#
# Revision: 0
# Processed by: cddbd v1.5.2PL0 Copyright (c) Steve Scherf et al.
# Submitted via: CDex 1.70beta2
#
DISCID=7c0f4f09
DTITLE=Andrej Olejniczak - Different Choice
DYEAR=2010
DGENRE=Jazz
TTITLE0=Poise
TTITLE1=New Romantic Expectation
TTITLE2=Radkowi
TTITLE3=Viuda Negra
TTITLE4=Reminiscence
TTITLE5=Cantabile in h-moll
TTITLE6=Music for Soprano Saxofon and String Quartet
TTITLE7=Canzonetta
TTITLE8=New Romantic Temptation
EXTD=YEAR: 2010
EXTT0=
EXTT1=
EXTT2=
EXTT3=
EXTT4=
EXTT5=
EXTT6=
EXTT7=
EXTT8=
PLAYORDER=
